<mxfile host="app.diagrams.net" modified="2020-08-23T05:12:00.569Z" agent="5.0 (Windows)" etag="Nqa18xh2fB9IynO9TYmq" version="13.6.4" type="github">
  <diagram id="l5rkMX41A2DQlqJ6bJBF" name="Page-1">
    <mxGraphModel dx="1422" dy="791" grid="1" gridSize="10" guides="1" tooltips="1" connect="1" arrows="1" fold="1" page="1" pageScale="1" pageWidth="850" pageHeight="1100" math="0" shadow="0">
      <root>
        <mxCell id="0" />
        <mxCell id="1" parent="0" />
        <mxCell id="UAcBqdveJcMJWKJadwkK-1" value="初学阶段" style="text;html=1;align=left;verticalAlign=middle;whiteSpace=wrap;rounded=0;fontSize=16;fontStyle=1;fontColor=#66B2FF;" vertex="1" parent="1">
          <mxGeometry x="40" y="110" width="140" height="20" as="geometry" />
        </mxCell>
        <mxCell id="UAcBqdveJcMJWKJadwkK-2" value="&lt;font size=&quot;1&quot; color=&quot;#004C99&quot;&gt;&lt;b style=&quot;font-size: 30px&quot;&gt;Python学习之路&lt;/b&gt;&lt;/font&gt;" style="text;html=1;strokeColor=none;fillColor=none;align=center;verticalAlign=middle;whiteSpace=wrap;rounded=0;" vertex="1" parent="1">
          <mxGeometry x="260" y="50" width="355" height="20" as="geometry" />
        </mxCell>
        <mxCell id="UAcBqdveJcMJWKJadwkK-3" value="&lt;p style=&quot;line-height: 120%&quot;&gt;以语法基础和数据结构为主，&lt;br&gt;在学习上应求泛而全但不求精，&lt;br&gt;不管什么求职意向的同学在这里都要学一样的东西。&lt;/p&gt;" style="text;fillColor=none;align=left;verticalAlign=top;whiteSpace=wrap;rounded=0;fontSize=16;horizontal=1;labelPosition=center;verticalLabelPosition=middle;spacing=2;fontColor=#4D4D4D;labelBackgroundColor=none;spacingTop=0;fontStyle=0;html=1;" vertex="1" parent="1">
          <mxGeometry x="40" y="120" width="400" height="100" as="geometry" />
        </mxCell>
        <mxCell id="UAcBqdveJcMJWKJadwkK-4" value="" style="rounded=0;whiteSpace=wrap;html=1;labelBackgroundColor=none;strokeColor=#000000;fontSize=16;fontColor=#4D4D4D;align=left;" vertex="1" parent="1">
          <mxGeometry x="310" y="240" width="150" height="200" as="geometry" />
        </mxCell>
      </root>
    </mxGraphModel>
  </diagram>
</mxfile>
